<svg width="90" height="180" viewBox="0 0 90 180" fill="none" xmlns="http://www.w3.org/2000/svg">
<path fill-rule="evenodd" clip-rule="evenodd" d="M0 89.9928C0 139.622 40.3423 180 89.9136 180V169.898C45.8998 169.898 10.0784 134.045 10.0784 89.9928C10.0784 45.9403 45.8998 10.0873 89.9136 10.0873V0C40.3423 0 0 40.3635 0 89.9928ZM89.9138 158.198C52.3358 158.198 21.7695 127.604 21.7695 89.9934C21.7695 52.3823 52.3358 21.7891 89.9138 21.7891V31.8763C57.8933 31.8763 31.8479 57.9447 31.8479 89.9934C31.8479 122.042 57.8933 148.11 89.9138 148.11V158.198ZM42.8047 90.0101C42.8047 116.006 63.9405 137.161 89.9139 137.161V127.074C69.498 127.074 52.8831 110.444 52.8831 90.0101C52.8831 69.5762 69.498 52.9466 89.9139 52.9466V42.8594C63.9405 42.8594 42.8047 64.0138 42.8047 90.0101ZM65.3369 89.9969C65.3369 103.557 76.3655 114.595 89.9138 114.595V104.508C81.9231 104.508 75.4153 97.9947 75.4153 89.9969C75.4153 81.9992 81.9231 75.4857 89.9138 75.4857V65.3984C76.3655 65.3984 65.3369 76.4368 65.3369 89.9969Z" fill="url(#paint0_angular)"/>
<defs>
<radialGradient id="paint0_angular" cx="0" cy="0" r="1" gradientUnits="userSpaceOnUse" gradientTransform="translate(-24.4789 25.4206) rotate(41.0277) scale(192.195 96.0064)">
<stop stop-color="#246DDF"/>
<stop offset="1" stop-color="#03CBFF"/>
</radialGradient>
</defs>
</svg>
